<?xml version="1.0" encoding="UTF-8"?>
<svg width="32" height="32" viewBox="0 0 24 24" fill="none" xmlns="http://www.w3.org/2000/svg">
  <path d="M21.5 15.5L14.5 10.5V4C14.5 3.17157 13.8284 2.5 13 2.5C12.1716 2.5 11.5 3.17157 11.5 4V10.5L4.5 15.5C4.18624 15.7259 4 16.0944 4 16.5C4 17.0523 4.44772 17.5 5 17.5H11.5V20.5C11.5 21.0523 11.9477 21.5 12.5 21.5H13.5C14.0523 21.5 14.5 21.0523 14.5 20.5V17.5H21C21.5523 17.5 22 17.0523 22 16.5C22 16.0944 21.8138 15.7259 21.5 15.5Z" fill="#FF7043"/>
</svg> 